<?xml version="1.0" encoding="UTF-8" standalone="no"?>
<!-- Created with Inkscape (http://www.inkscape.org/) -->

<svg
   xmlns:dc="http://purl.org/dc/elements/1.1/"
   xmlns:cc="http://creativecommons.org/ns#"
   xmlns:rdf="http://www.w3.org/1999/02/22-rdf-syntax-ns#"
   xmlns:svg="http://www.w3.org/2000/svg"
   xmlns="http://www.w3.org/2000/svg"
   xmlns:xlink="http://www.w3.org/1999/xlink"
   xmlns:sodipodi="http://sodipodi.sourceforge.net/DTD/sodipodi-0.dtd"
   xmlns:inkscape="http://www.inkscape.org/namespaces/inkscape"
   width="24"
   height="24"
   id="svg2"
   version="1.1"
   inkscape:version="0.48.5 r10040"
   sodipodi:docname="tool_pen.svg">
  <defs
     id="defs4">
    <linearGradient
       inkscape:collect="always"
       xlink:href="#linearGradient3871"
       id="linearGradient4761"
       gradientUnits="userSpaceOnUse"
       gradientTransform="matrix(1.1359115,0.84922162,-0.84922162,1.1359115,-76.007284,-546.12776)"
       x1="690.0625"
       y1="471.31812"
       x2="720.0625"
       y2="471.31812" />
    <linearGradient
       id="linearGradient3871">
      <stop
         id="stop3873"
         offset="0"
         style="stop-color:#000000;stop-opacity:0.78431374;" />
      <stop
         style="stop-color:#ffffff;stop-opacity:0.50196081;"
         offset="0.5"
         id="stop3879" />
      <stop
         id="stop3875"
         offset="1"
         style="stop-color:#000000;stop-opacity:0.78431374;" />
    </linearGradient>
  </defs>
  <sodipodi:namedview
     id="base"
     pagecolor="#ffffff"
     bordercolor="#666666"
     borderopacity="1.0"
     inkscape:pageopacity="0.0"
     inkscape:pageshadow="2"
     inkscape:zoom="17.73166"
     inkscape:cx="26.734719"
     inkscape:cy="8.4760788"
     inkscape:document-units="px"
     inkscape:current-layer="layer1"
     showgrid="false"
     inkscape:window-width="1855"
     inkscape:window-height="1056"
     inkscape:window-x="65"
     inkscape:window-y="24"
     inkscape:window-maximized="1"
     fit-margin-top="0"
     fit-margin-left="0"
     fit-margin-right="0"
     fit-margin-bottom="0" />
  <metadata
     id="metadata7">
    <rdf:RDF>
      <cc:Work
         rdf:about="">
        <dc:format>image/svg+xml</dc:format>
        <dc:type
           rdf:resource="http://purl.org/dc/dcmitype/StillImage" />
        <dc:title />
      </cc:Work>
    </rdf:RDF>
  </metadata>
  <g
     inkscape:label="Layer 1"
     inkscape:groupmode="layer"
     id="layer1"
     transform="translate(-4.8072811,-1024.9107)">
    <g
       transform="matrix(0.04581905,0,0,0.04581905,2.110691,1009.9496)"
       style="display:inline"
       id="g4768">
      <path
         inkscape:connector-curvature="0"
         id="path4705"
         d="m 480.92792,414.46562 -34.07735,-25.47665 -8.49221,11.35912 34.07734,25.47665 8.49222,-11.35912 z"
         style="opacity:0.95;fill:#a3a2b3;fill-opacity:1;stroke:none" />
      <path
         sodipodi:nodetypes="ccccsssc"
         inkscape:connector-curvature="0"
         id="path4707"
         d="m 485.07643,337.85839 -38.22586,51.13058 34.07735,25.47665 38.22586,-51.13058 c 0,0 0.36602,-6.34046 -1.43345,-9.92566 -1.4226,-2.83436 -6.82089,-8.64099 -9.66067,-10.76404 -2.83978,-2.12306 -9.93651,-5.65786 -13.05756,-6.2204 -3.94784,-0.71155 -9.92567,1.43345 -9.92567,1.43345 z"
         style="opacity:0.95;fill:#150000;fill-opacity:1;stroke:none" />
      <path
         inkscape:connector-curvature="0"
         id="path4709"
         d="m 438.37489,400.34592 -263.25871,352.13257 -5.94455,7.95138 c 1.09786,0.82077 2.28731,1.39653 3.53941,1.70537 1.2521,0.30883 2.53679,0.36192 3.79414,0.18034 1.25734,-0.18158 2.47452,-0.59599 3.58808,-1.24647 1.11356,-0.65048 2.15353,-1.54821 2.9743,-2.64607 l 1.13592,0.84922 c -0.82078,1.09786 -1.38758,2.34934 -1.69641,3.60145 -0.30884,1.2521 -0.36193,2.53679 -0.18035,3.79413 0.18159,1.25735 0.59599,2.47452 1.24648,3.58808 0.65048,1.11356 1.53925,2.0915 2.63711,2.91227 1.09785,0.82078 2.2873,1.39654 3.5394,1.70537 1.25211,0.30884 2.5368,0.36193 3.79414,0.18035 1.25734,-0.18159 2.47452,-0.596 3.58808,-1.24648 1.11356,-0.65048 2.15353,-1.54821 2.97431,-2.64607 l 1.13591,0.84923 c -0.82077,1.09785 -1.38758,2.34934 -1.69641,3.60144 -0.30884,1.2521 -0.36193,2.53679 -0.18034,3.79414 0.18158,1.25734 0.59599,2.47451 1.24647,3.58807 0.65048,1.11356 1.53925,2.09151 2.63711,2.91228 l 5.94455,-7.95138 263.2587,-352.13257 -34.07734,-25.47665 z"
         style="opacity:0.95;fill:#001cc2;fill-opacity:1;stroke:none" />
      <path
         inkscape:connector-curvature="0"
         id="path4713"
         d="m 158.04466,820.44484 c -0.31147,-0.4064 -0.56234,-0.84434 -0.90603,-1.23073 -0.93949,-1.0562 -2.02812,-2.01428 -3.20439,-2.89368 -1.17627,-0.87939 -2.40318,-1.65251 -3.68207,-2.25473 -0.46785,-0.22032 -0.95887,-0.33702 -1.43679,-0.52078 l -7.61946,19.81418 16.84874,-12.91426 z"
         style="opacity:0.95;fill:#1a160a;fill-opacity:1;stroke:none" />
      <path
         inkscape:connector-curvature="0"
         id="path4715"
         d="m 183.06756,758.42304 c -0.82077,1.09786 -1.86074,1.99559 -2.9743,2.64607 -1.11356,0.65048 -2.33074,1.06489 -3.58808,1.24647 -1.25735,0.18158 -2.54204,0.12849 -3.79414,-0.18034 -1.2521,-0.30884 -2.44155,-0.8846 -3.53941,-1.70537 l -20.35061,53.12745 c 0.47792,0.18376 0.96894,0.30046 1.43679,0.52078 1.27885,0.60227 2.5058,1.37534 3.68207,2.25473 1.17627,0.8794 2.26494,1.83744 3.20439,2.89368 0.34369,0.38639 0.59456,0.82433 0.90603,1.23073 l 45.19868,-34.55072 c -1.09786,-0.82077 -1.98663,-1.79872 -2.63711,-2.91228 -0.65048,-1.11356 -1.06489,-2.33073 -1.24647,-3.58807 -0.18159,-1.25735 -0.1285,-2.54204 0.18034,-3.79414 0.30883,-1.2521 0.87564,-2.50359 1.69641,-3.60144 l -1.13591,-0.84923 c -0.82078,1.09786 -1.86075,1.99559 -2.97431,2.64607 -1.11356,0.65048 -2.33074,1.06489 -3.58808,1.24648 -1.25734,0.18158 -2.54203,0.12849 -3.79414,-0.18035 -1.2521,-0.30883 -2.44155,-0.88459 -3.5394,-1.70537 -1.09786,-0.82077 -1.98663,-1.79871 -2.63711,-2.91227 -0.65049,-1.11356 -1.06489,-2.33073 -1.24648,-3.58808 -0.18158,-1.25734 -0.12849,-2.54203 0.18035,-3.79413 0.30883,-1.25211 0.87563,-2.50359 1.69641,-3.60145 l -1.13592,-0.84922 z"
         style="opacity:0.95;fill:#ffb200;fill-opacity:1;stroke:none" />
      <path
         inkscape:connector-curvature="0"
         d="m 169.16599,760.41747 -20.35061,53.12745 c 0.47792,0.18376 0.96894,0.30046 1.43679,0.52078 1.27885,0.60227 2.5058,1.37534 3.68207,2.25473 1.17627,0.8794 2.26494,1.83744 3.20439,2.89368 0.34369,0.38639 0.59456,0.82433 0.90603,1.23073 l 45.19868,-34.55072 -17.03868,-12.73832 -17.03867,-12.73833 z m -11.12133,60.02737 c -0.31147,-0.4064 -0.56234,-0.84434 -0.90603,-1.23073 -0.93949,-1.0562 -2.02812,-2.01428 -3.20439,-2.89368 -1.17627,-0.87939 -2.40318,-1.65251 -3.68207,-2.25473 -0.46785,-0.22032 -0.95887,-0.33702 -1.43679,-0.52078 l -7.61946,19.81418 16.84874,-12.91426 z m 11.12133,-60.02737 17.03867,12.73833 c -1.09785,-0.82078 -1.98663,-1.79872 -2.63711,-2.91228 -0.65048,-1.11356 -1.06488,-2.33073 -1.24647,-3.58808 -0.18158,-1.25734 -0.12849,-2.54203 0.18035,-3.79413 0.30883,-1.25211 0.87563,-2.50359 1.69641,-3.60145 l -1.13592,-0.84922 c -0.82077,1.09786 -1.86075,1.99559 -2.97431,2.64607 -1.11356,0.65048 -2.33073,1.06489 -3.58807,1.24647 -1.25735,0.18159 -2.54204,0.12849 -3.79414,-0.18034 -1.2521,-0.30884 -2.44155,-0.8846 -3.53941,-1.70537 z m 17.03867,12.73833 17.03868,12.73832 c -1.09786,-0.82077 -1.98663,-1.79871 -2.63711,-2.91227 -0.65048,-1.11356 -1.06489,-2.33074 -1.24647,-3.58808 -0.18159,-1.25735 -0.1285,-2.54204 0.18034,-3.79414 0.30883,-1.2521 0.87564,-2.50358 1.69641,-3.60144 l -1.13591,-0.84922 c -0.82078,1.09785 -1.86075,1.99559 -2.97431,2.64607 -1.11356,0.65048 -2.33074,1.06488 -3.58808,1.24647 -1.25734,0.18158 -2.54203,0.12849 -3.79414,-0.18035 -1.2521,-0.30883 -2.44155,-0.88459 -3.53941,-1.70536 z m -11.105,-20.67515 -5.94455,7.95138 c 1.09785,0.82078 2.2873,1.39654 3.5394,1.70537 1.25211,0.30884 2.5368,0.36193 3.79414,0.18035 1.25734,-0.18159 2.47452,-0.596 3.58808,-1.24648 1.11356,-0.65048 2.15353,-1.54821 2.97431,-2.64607 l -7.95138,-5.94455 z m 34.08821,25.46211 -7.95138,-5.94455 c -0.82077,1.09786 -1.38757,2.34934 -1.69641,3.60144 -0.30883,1.25211 -0.36193,2.5368 -0.18034,3.79414 0.18158,1.25734 0.59599,2.47452 1.24647,3.58808 0.65048,1.11356 1.53925,2.0915 2.63711,2.91227 l 5.94455,-7.95138 z m -9.08729,-6.79377 c -0.82077,1.09786 -1.86075,1.99559 -2.97431,2.64607 -1.11356,0.65048 -2.33073,1.06489 -3.58808,1.24647 -1.25734,0.18158 -2.54203,0.12849 -3.79413,-0.18034 -1.25211,-0.30884 -2.44155,-0.8846 -3.53941,-1.70537 -1.09786,-0.82077 -1.98663,-1.79872 -2.63711,-2.91228 -0.65048,-1.11356 -1.06489,-2.33073 -1.24647,-3.58807 -0.18159,-1.25735 -0.1285,-2.54204 0.18034,-3.79414 0.30883,-1.2521 0.87564,-2.50359 1.69641,-3.60144 l 15.90276,11.8891 z m 238.25778,-370.8009 -263.2587,352.13256 9.08729,6.79378 c 0.82077,-1.09786 1.86075,-1.99559 2.97431,-2.64607 1.11356,-0.65048 2.33073,-1.06489 3.58808,-1.24647 1.25734,-0.18159 2.54203,-0.1285 3.79413,0.18034 1.25211,0.30883 2.44155,0.88459 3.53941,1.70537 1.09786,0.82077 1.98663,1.79871 2.63711,2.91227 0.65048,1.11356 1.06489,2.33074 1.24647,3.58808 0.18159,1.25734 0.12849,2.54203 -0.18034,3.79413 -0.30884,1.25211 -0.87564,2.50359 -1.69641,3.60145 L 209.177,777.9573 472.4357,425.82474 438.35836,400.34809 z M 200.08971,771.16353 c 0.82077,-1.09786 1.38757,-2.34934 1.69641,-3.60145 0.30883,-1.2521 0.36193,-2.53679 0.18034,-3.79413 -0.18158,-1.25734 -0.59599,-2.47452 -1.24647,-3.58808 -0.65048,-1.11356 -1.53925,-2.0915 -2.63711,-2.91227 -1.09786,-0.82078 -2.2873,-1.39654 -3.53941,-1.70537 -1.2521,-0.30884 -2.53679,-0.36193 -3.79413,-0.18034 -1.25735,0.18158 -2.47452,0.59599 -3.58808,1.24647 -1.11356,0.65048 -2.15354,1.54821 -2.97431,2.64607 l 15.90276,11.8891 z m 284.98673,-433.30515 -38.22587,51.13059 34.07735,25.47665 38.22587,-51.13059 c 0,0 0.36602,-6.34047 -1.43345,-9.92567 -1.42259,-2.83436 -6.82089,-8.64099 -9.66067,-10.76404 -2.83977,-2.12306 -9.93651,-5.65787 -13.05756,-6.22039 -3.94784,-0.71156 -9.92567,1.43345 -9.92567,1.43345 z m -4.14852,76.60724 -34.07735,-25.47665 -8.49221,11.35912 34.07734,25.47665 8.49222,-11.35912 z"
         style="opacity:0.4;fill:url(#linearGradient4761);fill-opacity:1;stroke:none"
         id="path4717" />
      <text
         transform="matrix(0.59877549,-0.80091692,0.80091692,0.59877549,0,0)"
         sodipodi:linespacing="125%"
         id="text4722"
         y="613.49945"
         x="-129.06232"
         style="font-size:56.73055267px;font-style:normal;font-weight:normal;line-height:125%;letter-spacing:0px;word-spacing:0px;fill:#ffffff;fill-opacity:0.06692912;stroke:none;font-family:Sans"
         xml:space="preserve"><tspan
           style="font-size:4px;text-align:center;writing-mode:lr-tb;text-anchor:middle;fill:#ffffff;fill-opacity:0.06692912"
           y="613.49945"
           x="-129.06232"
           id="tspan4724"
           sodipodi:role="line">riuson@gmail.com</tspan></text>
    </g>
  </g>
</svg>
